# xmcd CD database file
#
# Track frame offsets:
#	150
#	22118
#	42683
#	68160
#	85382
#	112190
#	132318
#	156001
#	175220
#	192708
#	206685
#	226468
#
# Disc length: 3266 seconds
#
# Revision: 0
# Processed by: cddbd v1.5.1PL0 Copyright (c) Steve Scherf et al.
# Submitted via: CDex 1.51
#
DISCID=b60cc00c
DTITLE=川嶋あい - 路上集?号
DYEAR=1900
DGENRE=JPop
TTITLE0=ガラスの心
TTITLE1=未来への道 (Hyper "ai"Mix)
TTITLE2=天使たちのメロディー (Street Live Ver.)
TTITLE3=My story
TTITLE4=blessing -祈り-
TTITLE5=飛べない鳥
TTITLE6=最後の夕日
TTITLE7=そこから始めよう
TTITLE8=永遠と呼べる道
TTITLE9=サウスポー
TTITLE10=もっと!
TTITLE11=旅立ちの日に… (instrumental)
EXTD=
EXTT0=
EXTT1=
EXTT2=
EXTT3=
EXTT4=
EXTT5=
EXTT6=
EXTT7=
EXTT8=
EXTT9=
EXTT10=
EXTT11=
PLAYORDER=
